<?xml version="1.0" encoding="utf-8"?>
<!-- Generator: Adobe Illustrator 18.1.1, SVG Export Plug-In . SVG Version: 6.00 Build 0)  -->
<svg version="1.1" id="Layer_1" xmlns="http://www.w3.org/2000/svg" xmlns:xlink="http://www.w3.org/1999/xlink" x="0px" y="0px"
	 width="765.5px" height="187px" viewBox="0 0 765.5 187" style="enable-background:new 0 0 765.5 187;" xml:space="preserve">
<style type="text/css">
	.st0{fill:#808285;}
	.st1{fill:#0060A9;}
	.st2{font-family:'HelveticaLTStd-Roman';}
	.st3{font-size:22.5347;}
</style>
<g>
	<path class="st0" d="M15.9,181.4v-10l-8-15.3h5.9l3.2,6.3c0.2,0.5,1.2,2.6,1.4,3.1h0.2c0.5-1.1,0.6-1.2,1.4-3l3.1-6.4H29l-7.6,15.1
		v10.2H15.9z"/>
	<path class="st0" d="M47.2,165c0-2.6,0.4-5.1,2.2-7c1.6-1.8,4-2.4,6.3-2.4c2.6,0,5,0.6,6.6,2.4c1.4,1.5,2.2,3.7,2.2,7.8v6.1
		c0,3.5-0.6,5.8-2.2,7.5c-2.1,2.3-5.1,2.5-6.7,2.5c-2.5,0-6.5-0.9-7.8-5.2c-0.6-1.8-0.7-4-0.7-5.1V165z M52.8,172.9
		c0,2.6,0.5,4.5,3,4.5c3,0,3-2.8,3-4.5v-8.8c0-1.8,0-3.9-2.9-3.9c-3.1,0-3.1,2.9-3.1,3.9V172.9z"/>
	<path class="st0" d="M86.4,156.1h5.7v16.6c0,1.5,0,4.6,3.4,4.6c1.1,0,3.5,0,3.5-4.6v-16.7h5.6v16.7c0,1.5,0,5.2-2.6,7.3
		c-1.8,1.4-3.9,1.9-6.2,1.9c-2.6,0-5.4-0.7-6.9-2.1c-2.4-2.3-2.5-5.2-2.5-7.5V156.1z"/>
	<path class="st0" d="M132.3,181.4h-5.5v-25.2h8.1c4.1,0,9.3,0.6,9.3,7.3c0,3.2-1.3,5.6-4.8,6.7l5.5,11.2h-6l-4.8-10.3h-1.9V181.4z
		 M132.3,167c3.1,0,3.6,0,4.4-0.3c1.8-0.6,1.9-2,1.9-3.4c0-1.8-0.5-2.6-1.6-3c-0.9-0.3-1.5-0.3-4.6-0.3V167z"/>
	<path class="st0" d="M191.4,156.1l2.6,11.9c0.1,0.4,0.5,2.2,0.6,2.5l0.4,2.5h0.2c0.1-0.3,0.4-2.1,0.5-2.5c0.1-0.4,0.6-2.2,0.6-2.6
		l2.8-11.9h4.7l2.7,11.9c0,0.2,1.1,4.9,1.2,5.1h0.1c0.2-1.3,1-4.8,1-4.8l2.7-12.1h5l-6,25.2h-5l-3-12.4c-0.4-1.8-0.8-3.8-1-4.7h-0.1
		c-0.2,0.8-0.9,4.1-1,4.7l-2.9,12.3h-5l-6.1-25.2H191.4z"/>
	<path class="st0" d="M234.4,181.4v-2.2h3v-20.8h-3v-2.2h11.5v2.2h-3v20.7h3v2.3H234.4z"/>
	<path class="st0" d="M271.1,181.4h-5.5v-25.2h8.1c4.1,0,9.3,0.6,9.3,7.3c0,3.2-1.3,5.6-4.8,6.7l5.5,11.2h-6L273,171h-1.9V181.4z
		 M271.1,167c3.1,0,3.6,0,4.4-0.3c1.8-0.6,1.9-2,1.9-3.4c0-1.8-0.5-2.6-1.6-3c-0.9-0.3-1.5-0.3-4.6-0.3V167z"/>
	<path class="st0" d="M304.5,156.1h16.9v4.6H310v5.4h7.9v4.6h-7.8v5.9h12.2v4.7h-17.7V156.1z"/>
	<path class="st0" d="M342.9,156.1h5.6v20.5h11.1v4.7h-16.7V156.1z"/>
	<path class="st0" d="M380.2,156.1h17v4.6h-11.4v5.4h7.9v4.6h-7.8v5.9h12.2v4.7h-17.7V156.1z"/>
	<path class="st0" d="M430.5,162.9c-0.8-1.5-2.4-2.8-4.4-2.8c-2.9,0-3,2.2-3,2.4c0,1.8,1.6,2.5,3.2,3.1l3.2,1.2
		c1.5,0.6,3.3,1.6,4.3,3c0.3,0.4,1.4,2.1,1.4,4.4c0,1.1,0,4.5-3.6,6.7c-1.5,0.9-3.6,1.3-4.8,1.3c-4.4,0-7-1.1-9.3-5.1l4.3-2.9
		c0.9,2.1,2.6,3.4,4.8,3.4c1.2,0,3.4-0.5,3.4-2.9c0-1.9-1-2.3-4.8-3.8c-3.8-1.5-7.1-3.2-7.1-8.1c0-4.2,3-7.2,8.2-7.2
		c3.7,0,6.3,1.5,8.4,4.5L430.5,162.9z"/>
	<path class="st0" d="M467.4,162.9c-0.8-1.5-2.4-2.8-4.4-2.8c-2.9,0-3,2.2-3,2.4c0,1.8,1.7,2.5,3.2,3.1l3.2,1.2
		c1.5,0.6,3.3,1.6,4.3,3c0.3,0.4,1.4,2.1,1.4,4.4c0,1.1,0,4.5-3.6,6.7c-1.5,0.9-3.6,1.3-4.8,1.3c-4.4,0-7-1.1-9.3-5.1l4.3-2.9
		c0.9,2.1,2.6,3.4,4.8,3.4c1.2,0,3.4-0.5,3.4-2.9c0-1.9-1-2.3-4.8-3.8c-3.8-1.5-7.1-3.2-7.1-8.1c0-4.2,3-7.2,8.2-7.2
		c3.7,0,6.3,1.5,8.4,4.5L467.4,162.9z"/>
	<path class="st0" d="M529.5,162.9c-0.8-1.5-2.4-2.8-4.4-2.8c-2.9,0-3,2.2-3,2.4c0,1.8,1.6,2.5,3.2,3.1l3.2,1.2
		c1.5,0.6,3.3,1.6,4.3,3c0.3,0.4,1.4,2.1,1.4,4.4c0,1.1,0,4.5-3.6,6.7c-1.5,0.9-3.6,1.3-4.8,1.3c-4.4,0-7-1.1-9.3-5.1l4.3-2.9
		c0.9,2.1,2.6,3.4,4.8,3.4c1.2,0,3.4-0.5,3.4-2.9c0-1.9-1-2.3-4.8-3.8c-3.8-1.5-7.1-3.2-7.1-8.1c0-4.2,3-7.2,8.2-7.2
		c3.7,0,6.3,1.5,8.4,4.5L529.5,162.9z"/>
	<path class="st0" d="M554.6,165c0-2.6,0.4-5.1,2.2-7c1.6-1.8,4-2.4,6.3-2.4c2.6,0,5,0.6,6.6,2.4c1.4,1.5,2.2,3.7,2.2,7.8v6.1
		c0,3.5-0.6,5.8-2.2,7.5c-2.1,2.3-5.1,2.5-6.7,2.5c-2.5,0-6.5-0.9-7.8-5.2c-0.5-1.8-0.7-4-0.7-5.1V165z M560.2,172.9
		c0,2.6,0.5,4.5,3,4.5c3,0,3-2.8,3-4.5v-8.8c0-1.8,0-3.9-2.9-3.9c-3.1,0-3.1,2.9-3.1,3.9V172.9z"/>
	<path class="st0" d="M593.8,156.1h5.7v16.6c0,1.5,0,4.6,3.4,4.6c1.1,0,3.5,0,3.5-4.6v-16.7h5.6v16.7c0,1.5,0,5.2-2.6,7.3
		c-1.8,1.4-3.9,1.9-6.2,1.9c-2.6,0-5.4-0.7-6.9-2.1c-2.4-2.3-2.5-5.2-2.5-7.5V156.1z"/>
	<path class="st0" d="M639.7,181.4h-5.5v-25.2h8.1c4.1,0,9.3,0.6,9.3,7.3c0,3.2-1.3,5.6-4.8,6.7l5.5,11.2h-6l-4.8-10.3h-1.9V181.4z
		 M639.7,167c3.1,0,3.6,0,4.4-0.3c1.8-0.6,1.9-2,1.9-3.4c0-1.8-0.6-2.6-1.7-3c-0.9-0.3-1.5-0.3-4.6-0.3V167z"/>
	<path class="st0" d="M672.9,164.6c0-5.8,3.1-9,9-9c1.5,0,3.8,0.3,5.5,1.7c2.3,1.8,2.5,4.9,2.6,6.9h-5.5c0-1.2-0.1-4-2.9-4
		c-0.7,0-1.5,0.3-2.1,0.8c-0.9,0.8-0.9,2.1-0.9,2.8v9.6c0,1.4,0,4,3.1,4c2.3,0,3-1.9,3-4.6h5.6c0,1.8-0.1,2-0.2,3.1
		c-0.2,1-0.5,2.8-2.6,4.5c-1.8,1.4-4.4,1.7-5.5,1.7c-2.9,0-5-0.7-6.5-2.2c-1-1-2.4-2.4-2.4-7.6V164.6z"/>
	<path class="st0" d="M711.8,156.1h17v4.6h-11.4v5.4h7.9v4.6h-7.8v5.9h12.2v4.7h-17.7V156.1z"/>
</g>
<g>
	<path d="M34.4,19.9h8.1c7.7,0,10.3,2.7,10.3,8c0,6.3-3.4,8.4-13,8.4h-5.5V19.9z M7.6,70.2h26.8V49.6h21c13.4,0,23.7-5.5,23.7-21
		C79.1,12.1,68.3,6.6,53,6.6H7.6V70.2z"/>
	<path class="st1" d="M175.2,15.2h-7.9c-1.4,0-2.4-2.1-2.4-4.6c0-2.5,1-4.6,2.4-4.6h7.9c1.4,0,2.4,2.1,2.4,4.6
		C177.6,13.1,176.6,15.2,175.2,15.2z M159.6,15.2h-7.9c-1.4,0-2.4-2.1-2.4-4.6c0-2.5,1-4.6,2.4-4.6h7.9c1.4,0,2.4,2.1,2.4,4.6
		C162,13.1,161,15.2,159.6,15.2z M144,15.2h-7.9c-1.4,0-2.4-2.1-2.4-4.6c0-2.5,1-4.6,2.4-4.6h7.9c1.4,0,2.4,2.1,2.4,4.6
		C146.4,13.1,145.4,15.2,144,15.2z M128.5,15.2h-7.9c-1.4,0-2.4-2.1-2.4-4.6c0-2.5,1-4.6,2.4-4.6h7.9c1.4,0,2.4,2.1,2.4,4.6
		C130.9,13.1,129.8,15.2,128.5,15.2z M112.9,15.2H105c-1.4,0-2.4-2.1-2.4-4.6c0-2.5,1-4.6,2.4-4.6h7.9c1.4,0,2.4,2.1,2.4,4.6
		C115.3,13.1,114.3,15.2,112.9,15.2z M97.4,15.2h-7.9c-1.4,0-2.4-2.1-2.4-4.6c0-2.5,1-4.6,2.4-4.6h7.9c1.4,0,2.4,2.1,2.4,4.6
		C99.8,13.1,98.7,15.2,97.4,15.2z M175.2,26.2h-7.9c-1.4,0-2.4-2.1-2.4-4.6c0-2.5,1-4.6,2.4-4.6h7.9c1.4,0,2.4,2.1,2.4,4.6
		C177.6,24.1,176.6,26.2,175.2,26.2z M175.2,37.1h-7.9c-1.4,0-2.4-2.1-2.4-4.6c0-2.5,1-4.6,2.4-4.6h7.9c1.4,0,2.4,2.1,2.4,4.6
		C177.6,35.1,176.6,37.1,175.2,37.1z M144,37.1h-7.9c-1.4,0-2.4-2.1-2.4-4.6c0-2.5,1-4.6,2.4-4.6h7.9c1.4,0,2.4,2.1,2.4,4.6
		C146.4,35.1,145.4,37.1,144,37.1z M128.5,37.1h-7.9c-1.4,0-2.4-2.1-2.4-4.6c0-2.5,1-4.6,2.4-4.6h7.9c1.4,0,2.4,2.1,2.4,4.6
		C130.9,35.1,129.8,37.1,128.5,37.1z M112.9,37.1H105c-1.4,0-2.4-2.1-2.4-4.6c0-2.5,1-4.6,2.4-4.6h7.9c1.4,0,2.4,2.1,2.4,4.6
		C115.3,35.1,114.3,37.1,112.9,37.1z M175.2,48.2h-7.9c-1.4,0-2.4-2.1-2.4-4.6c0-2.5,1-4.6,2.4-4.6h7.9c1.4,0,2.4,2.1,2.4,4.6
		C177.6,46.1,176.6,48.2,175.2,48.2z M144,48.2h-7.9c-1.4,0-2.4-2.1-2.4-4.6c0-2.5,1-4.6,2.4-4.6h7.9c1.4,0,2.4,2.1,2.4,4.6
		C146.4,46.1,145.4,48.2,144,48.2z M128.5,48.2h-7.9c-1.4,0-2.4-2.1-2.4-4.6c0-2.5,1-4.6,2.4-4.6h7.9c1.4,0,2.4,2.1,2.4,4.6
		C130.9,46.1,129.8,48.2,128.5,48.2z M112.9,48.2H105c-1.4,0-2.4-2.1-2.4-4.6c0-2.5,1-4.6,2.4-4.6h7.9c1.4,0,2.4,2.1,2.4,4.6
		C115.3,46.1,114.3,48.2,112.9,48.2z M175.2,59.2h-7.9c-1.4,0-2.4-2.1-2.4-4.6c0-2.5,1-4.6,2.4-4.6h7.9c1.4,0,2.4,2.1,2.4,4.6
		C177.6,57.1,176.6,59.2,175.2,59.2z M175.2,70.2h-7.9c-1.4,0-2.4-2.1-2.4-4.6c0-2.5,1-4.6,2.4-4.6h7.9c1.4,0,2.4,2.1,2.4,4.6
		C177.6,68.1,176.6,70.2,175.2,70.2z M159.6,70.2h-7.9c-1.4,0-2.4-2.1-2.4-4.6c0-2.5,1-4.6,2.4-4.6h7.9c1.4,0,2.4,2.1,2.4,4.6
		C162,68.1,161,70.2,159.6,70.2z M144,70.2h-7.9c-1.4,0-2.4-2.1-2.4-4.6c0-2.5,1-4.6,2.4-4.6h7.9c1.4,0,2.4,2.1,2.4,4.6
		C146.4,68.1,145.4,70.2,144,70.2z M128.5,70.2h-7.9c-1.4,0-2.4-2.1-2.4-4.6c0-2.5,1-4.6,2.4-4.6h7.9c1.4,0,2.4,2.1,2.4,4.6
		C130.9,68.1,129.8,70.2,128.5,70.2z M112.9,70.2H105c-1.4,0-2.4-2.1-2.4-4.6c0-2.5,1-4.6,2.4-4.6h7.9c1.4,0,2.4,2.1,2.4,4.6
		C115.3,68.1,114.3,70.2,112.9,70.2z M97.4,70.2h-7.9c-1.4,0-2.4-2.1-2.4-4.6c0-2.5,1-4.6,2.4-4.6h7.9c1.4,0,2.4,2.1,2.4,4.6
		C99.8,68.1,98.7,70.2,97.4,70.2z"/>
	<path d="M216.8,19.4h9.7c6.5,0,10.5,1.9,10.5,7.6c0,6.1-4.4,7.8-10.1,7.8h-10.2V19.4z M190,70.2h26.8v-23h8.1
		c9.1,0,10.2,1.1,11.5,8.9l2.2,14.1h26.8l-3.4-21.3c-1.1-6.4-6.2-8.6-12.3-8.8v-0.9c7.9-1.4,13.7-6.7,13.7-15.1
		c0-14.1-10.8-17.5-28.1-17.5H190V70.2z"/>
	<path d="M290.1,22h-20.9V6.6h68.5V22h-20.9v48.1h-26.8V22z"/>
	<path d="M369.3,45.7l10.3-22.2l9.9,22.2H369.3z M331.6,70.2h26.3l4.9-10.5h32.9l4.7,10.5h29.5L397.5,6.6h-33.4L331.6,70.2z"/>
	<path d="M463.4,18.4h7.8c8.4,0,10.3,2.5,10.3,6.9c0,4.2-2.5,6.9-10.2,6.9h-7.9V18.4z M436.6,70.2h46.8c13.7,0,17.8-1.4,22-4.9
		c2.8-2.4,4.7-6.5,4.7-11.5c0-10.9-8.6-15.2-17.6-15.8v-0.2c8.5-2,15-6.1,15-14.7c0-10.7-8.1-16.5-27.4-16.5h-43.4V70.2z
		 M463.4,43.6h7.9c9.2,0,12.5,2.4,12.5,7.7c0,5.3-3.3,7.7-12.5,7.7h-7.9V43.6z"/>
	<path d="M521.4,6.6h26.8v48.1h29.3v15.4h-56.1V6.6z"/>
	<path d="M586.6,6.6h61v13.3h-35.1v11.8h32.9V45h-32.9v11.8h35.4v13.3h-61.3V6.6z"/>
	<path d="M685.2,49.7c0.1,3.5,0.8,6.1,2.5,7.8c1.8,1.7,4.1,2.5,7.7,2.5c5.6,0,11.6-1.3,11.6-6.4c0-1.1-0.4-2.1-1.1-2.9
		c-3.6-4-34-7-42.5-14.5c-3.4-3-4.5-7.5-4.5-11.1c0-13.9,12.7-20.1,38.2-20.1c27.1,0,35.2,7.5,35.6,20.5h-26.3
		c-0.2-3.5-1.3-5.7-3.3-7c-1.8-1.3-4.5-1.7-7.8-1.7c-5.6,0-8.6,2.1-8.6,5.3c0,1,0.4,2.2,1.1,2.9c4.1,3.9,33.6,6.8,42,14.4
		c2.5,2.2,5,5.7,5,11.7c0,12.6-11.1,20.7-40,20.7c-34.5,0-36.2-10.3-36.7-22.2H685.2z"/>
	<path d="M6.8,76.1h27.3v36.3c0,12.7,4.5,16.6,13,16.6c8.5,0,13-3.9,13-16.6V76.1h26.8v38.7c0,10.5-2,14.9-6.4,19.4
		c-6.8,7-18.5,9.9-33.6,9.9c-15.1,0-26.8-2.9-33.6-9.9c-4.4-4.5-6.4-8.9-6.4-19.4V76.1z"/>
	<path d="M102.7,76.1H144l22.6,44.5h0.3V76.1h24.5v66.4h-40l-24-47.3h-0.2v47.3h-24.5V76.1z"/>
	<path d="M207.8,76.1H236v50.1h31v16.2h-59.2V76.1z"/>
	<path d="M277.9,76.1h28.3v66.4h-28.3V76.1z"/>
	<path d="M321.3,76.1h42.9l14.1,44.5h0.2L392,76.1h43v66.4h-26.1v-50h-0.2l-18.4,50h-27.4l-17.3-50h-0.3v50h-24V76.1z"/>
	<path d="M448.5,76.1h28.3v66.4h-28.3V76.1z"/>
	<path d="M509.9,92.4h-22V76.1h72.3v16.2h-22v50.1h-28.3V92.4z"/>
	<path d="M571,76.1h64.3v14h-37v12.2h34.7v14h-34.7v12.3h37.4v14H571V76.1z"/>
	<path d="M676.5,91.2h7.8c12.9,0,20.6,5.7,20.6,18.1c0,12.4-7.7,18.1-20.6,18.1h-7.8V91.2z M648.2,142.5h40.8
		c20.8,0,28.2-2.6,36.1-8.8c5.9-4.6,9.1-14.1,9.1-23.8c0-9.9-3.3-17.9-8.2-22.8c-9.2-9.2-22-11-41.9-11h-36V142.5z"/>
</g>
<text transform="matrix(1 0 0 1 742.499 23.5459)" class="st2 st3">®</text>
</svg>
